<svg height="1024" preserveAspectRatio="none" viewBox="0 0 1024 1024" width="1024" xmlns="http://www.w3.org/2000/svg"><path d="m969.6 351.25q-8.6-20.85-19.4-40.85-6.1-11.35-12.9-22.4-29.35-47.55-71.55-89.8-138.25-138.25-333.8-138.25-195.5 0-333.75 138.25-138.25 138.25-138.25 333.75 0 195.55 138.25 333.8 138.25 138.2 333.75 138.2 195.55 0 333.8-138.2 76.15-76.2 110.35-169.75 27.85-76.25 27.85-164.05 0-67.35-16.4-127.95-1.85-6.85-3.9-13.6-6.15-19.95-14.05-39.15z" fill-opacity=".098039"/><path d="m969.7 392q-1.75-6.85-3.65-13.6-1.52421875-5.28554687-3.2-10.55-2.47128906-7.946875-5.25-15.8-9.75-27.55-23.15-53.65-5.8-11.35-12.3-22.4-30.65-52-76.35-97.75-109-109-253.65-132.05-24.5-3.9-50.05-5.35-14.9-.85-30.1-.85-14.1 0-27.9.75-177.55 9.2-305.85 137.5-138.25 138.25-138.25 333.75 0 195.55 138.25 333.8 84.79003906 84.75703125 191.1 117.55 54.53808594 16.81308594 114.75 19.95.2 0 .4 0 12.15.6 24.5.7 1.5 0 3 0 15.25 0 30.1-.8 3.5-.2 6.95-.45 30.05-2.15 58.7-7.7 11.8-2.3 23.4-5.15 120.6-30.05 214.65-124.1 72.9-72.95 107.35-161.8 27.75-71.6 30.55-153.5.3-9.2.3-18.5 0-1 0-2 0-.5 0-1-.35-61.3-14.3-117z" fill="#333"/><path d="m983 545.25-258.2-258.2-289.95 53.45-78.3 399.55 237.45 237.45q6.91660156-1.12617187 13.75-2.45 11.8-2.3 23.4-5.15 120.6-30.05 214.65-124.1 72.9-72.95 107.35-161.8 25.23867188-65.12011719 29.85-138.75z" fill-opacity=".2"/><path d="m652.7 393.25 72.1-106.2q-40.55-29.9-82.75-45.05-42.65-15.6-101.25-15.6-64.75 0-113.15 23.8-48.35 22.95-80.3 63.1-32 40.6-47.95 95.9-15.6 54.95-15.6 119.3v1.6q0 77.1 18.45 126.25 18.85 49.2 49.6 79.95 29.9 30.3 69.65 46.7 40.2 16.4 99.2 16.4 45.5 0 85.65-13.95 40.2-13.9 70.1-39.75 29.5-25.8 46.75-62.3 17.2-36.85 17.2-83.6v-2.05q0-41-14.75-73.75-15.15-32.8-40.15-54.55-25.05-21.7-57.8-33.2-33.2-11.45-69.7-11.45-41 0-68.85 13.5-27.85 13.55-50 30.35 6.15-51.25 30.75-83.2 24.6-32 73.35-32 32.8 0 58.6 11.1 25.45 10.65 50.85 28.7m-61.4 217.5q-.21777344-1.53925781-.1-3.15v1.2q0 .99082031.1 1.95z" fill="#fff"/><path d="m523.45 509q-.05-8.15-8.15-8.1l-43.85.35q-8.05 0-8 8.15l1.35 184.3q.05 3.85 1.95 5.6 1.55 1.35 6.2 2.5l6.45 2.15-3.45 5.55q-.95 3.2.55 6.15 1.6 3 4.8 4l13.2 4.05q3.15 1 6.15-.55 2.95-1.5 4-4.75l.2-6.05 11.4 3.8q.38105469.125.75.25 1.98066406.64550781 3.95 1.3 8.15-.05 8.05-8.15.9-11.4 6.75-18.25 2.5-2.9 5.55-4.35 2.9-1.5 5.6-1.3l64.05 12.6q8.05-.05 8-8.2l-.4-58.4q-.05-8.15-8.2-8.05l-46.7-10.7-.1-10.9q-.05-3.9-2-5.65-1.75-1.6-6.15-2.4l-7.8-1.9-.1-14.15q5.2.75 9.7.1 2.45-.3 3.9-2.3 1.5-1.95 1.2-4.3-.4-2.4-2.3-3.95-1.95-1.45-4.35-1.1-4.55.6-9.75-.8-4.2-1.05-7.4-3.05-.95-.55-2-1.45-1.9-1.5-4.35-1.25-2.45.25-3.95 2.2-1.5 1.9-1.3 4.3.3 2.45 2.2 3.95 1.4 1.2 3.15 2.25.6.4 1.6.95-.1.6-.1 1.25l.1 14.05-9.8-2.35z" fill="#333"/></svg>